<?xml version="1.0" encoding="utf-8"?>
<!-- Generator: Adobe Illustrator 19.0.0, SVG Export Plug-In . SVG Version: 6.00 Build 0)  -->
<svg version="1.1" id="Layer_1" xmlns="http://www.w3.org/2000/svg" xmlns:xlink="http://www.w3.org/1999/xlink" x="0px" y="0px"
     viewBox="0 0 19 15" style="enable-background:new 0 0 19 15;" xml:space="preserve">
<style type="text/css">
	.uxf-checkmark-svg{fill:#ffffff;}
</style>
<path class="uxf-checkmark-svg" d="M18.5,0.4c-0.6-0.6-1.6-0.5-2.1,0.1L6.7,11.3l-4.1-4C2,6.7,1,6.7,0.4,7.3c-0.6,0.6-0.6,1.5,0,2.1l5.2,5.1
	c0,0,0,0,0,0s0,0,0,0c0.1,0.1,0.2,0.1,0.3,0.2c0.1,0,0.1,0.1,0.2,0.1C6.4,15,6.6,15,6.7,15c0,0,0,0,0,0c0,0,0,0,0,0c0,0,0,0,0,0
	c0.2,0,0.4,0,0.5-0.1c0,0,0,0,0,0c0.2-0.1,0.3-0.2,0.5-0.3c0,0,0,0,0,0c0,0,0,0,0,0c0,0,0,0,0,0l10.8-12C19.2,1.9,19.1,0.9,18.5,0.4
	z"/>
</svg>
